<svg width="35" height="34" viewBox="0 0 35 34" fill="none" xmlns="http://www.w3.org/2000/svg">
<path d="M8.89917 9.43103C9.44529 9.43103 9.88916 9.87422 9.8894 10.4203C9.8894 10.9666 9.44544 11.4105 8.89917 11.4105H8.3728C7.75817 11.4108 7.2577 11.9112 7.25757 12.5258V26.7377C7.25776 27.3522 7.75824 27.8527 8.3728 27.8529H21.532C22.1466 27.8528 22.647 27.3523 22.6472 26.7377V26.2113C22.6472 25.665 23.0912 25.222 23.6375 25.222C24.1836 25.2222 24.6267 25.6651 24.6267 26.2113V26.7377C24.6265 28.4448 23.2392 29.8323 21.532 29.8324H8.3728C6.6657 29.8322 5.27827 28.4448 5.27808 26.7377V12.5258C5.27821 10.8186 6.66568 9.43126 8.3728 9.43103H8.89917Z" fill="#767676" stroke="#767676" stroke-width="0.4"/>
<path d="M25.7427 4.16751C27.45 4.16753 28.8372 5.55504 28.8374 7.26224V20.4214C28.8373 22.1287 27.45 23.5161 25.7427 23.5161H14.689C12.9818 23.5159 11.5944 22.1286 11.5942 20.4214V7.26224C11.5945 5.55516 12.9819 4.16774 14.689 4.16751H25.7427ZM14.689 6.147C14.0744 6.14724 13.574 6.6477 13.5737 7.26224V20.4214C13.5739 21.036 14.0744 21.5364 14.689 21.5367H25.7427C26.3574 21.5366 26.8578 21.0362 26.8579 20.4214V7.26224C26.8577 6.64753 26.3574 6.14702 25.7427 6.147H14.689Z" fill="#767676" stroke="#767676" stroke-width="0.4"/>
</svg>
