<svg width="31" height="30" viewBox="0 0 31 30" fill="none" xmlns="http://www.w3.org/2000/svg">
<path d="M23.83 8.75C23.4985 8.75 23.1805 8.8817 22.9461 9.11612C22.7117 9.35054 22.58 9.66848 22.58 10V23.9888C22.5442 24.6209 22.26 25.2132 21.7894 25.6367C21.3188 26.0603 20.6999 26.2807 20.0675 26.25H10.0925C9.46013 26.2807 8.84124 26.0603 8.37064 25.6367C7.90004 25.2132 7.61587 24.6209 7.58001 23.9888V10C7.58001 9.66848 7.44831 9.35054 7.21389 9.11612C6.97947 8.8817 6.66153 8.75 6.33001 8.75C5.99849 8.75 5.68055 8.8817 5.44613 9.11612C5.21171 9.35054 5.08001 9.66848 5.08001 10V23.9888C5.11569 25.284 5.66324 26.5124 6.60273 27.4048C7.54223 28.2972 8.7971 28.7809 10.0925 28.75H20.0675C21.3629 28.7809 22.6178 28.2972 23.5573 27.4048C24.4968 26.5124 25.0443 25.284 25.08 23.9888V10C25.08 9.66848 24.9483 9.35054 24.7139 9.11612C24.4795 8.8817 24.1615 8.75 23.83 8.75Z" fill="#767676"/>
<path d="M25.08 5H20.08V2.5C20.08 2.16848 19.9483 1.85054 19.7139 1.61612C19.4795 1.3817 19.1615 1.25 18.83 1.25H11.33C10.9985 1.25 10.6805 1.3817 10.4461 1.61612C10.2117 1.85054 10.08 2.16848 10.08 2.5V5H5.08001C4.74849 5 4.43055 5.1317 4.19613 5.36612C3.96171 5.60054 3.83001 5.91848 3.83001 6.25C3.83001 6.58152 3.96171 6.89946 4.19613 7.13388C4.43055 7.3683 4.74849 7.5 5.08001 7.5H25.08C25.4115 7.5 25.7295 7.3683 25.9639 7.13388C26.1983 6.89946 26.33 6.58152 26.33 6.25C26.33 5.91848 26.1983 5.60054 25.9639 5.36612C25.7295 5.1317 25.4115 5 25.08 5ZM12.58 5V3.75H17.58V5H12.58Z" fill="#767676"/>
<path d="M13.83 21.25V12.5C13.83 12.1685 13.6983 11.8505 13.4639 11.6161C13.2295 11.3817 12.9115 11.25 12.58 11.25C12.2485 11.25 11.9305 11.3817 11.6961 11.6161C11.4617 11.8505 11.33 12.1685 11.33 12.5V21.25C11.33 21.5815 11.4617 21.8995 11.6961 22.1339C11.9305 22.3683 12.2485 22.5 12.58 22.5C12.9115 22.5 13.2295 22.3683 13.4639 22.1339C13.6983 21.8995 13.83 21.5815 13.83 21.25Z" fill="#767676"/>
<path d="M18.83 21.25V12.5C18.83 12.1685 18.6983 11.8505 18.4639 11.6161C18.2295 11.3817 17.9115 11.25 17.58 11.25C17.2485 11.25 16.9305 11.3817 16.6961 11.6161C16.4617 11.8505 16.33 12.1685 16.33 12.5V21.25C16.33 21.5815 16.4617 21.8995 16.6961 22.1339C16.9305 22.3683 17.2485 22.5 17.58 22.5C17.9115 22.5 18.2295 22.3683 18.4639 22.1339C18.6983 21.8995 18.83 21.5815 18.83 21.25Z" fill="#767676"/>
</svg>
