<svg width="34" height="34" viewBox="0 0 34 34" fill="none" xmlns="http://www.w3.org/2000/svg">
<path d="M26.0068 13.9411L27.4589 12.489C28.5275 11.4204 28.727 9.88016 27.6585 8.81161L26.7287 7.88179C25.6601 6.81324 24.1578 7.05073 23.0892 8.11929L21.6371 9.57143L26.0068 13.9411ZM19.6986 11.5099L7.10885 24.1134L6.40168 29.2147L11.4785 28.4694L24.0683 15.8796L19.6986 11.5099ZM26.9508 24.4199C26.9508 27.4201 23.4712 29.2147 20.1011 29.2147C19.3476 29.2147 18.7312 28.5983 18.7312 27.8448C18.7312 27.0913 19.3476 26.4749 20.1011 26.4749C22.2108 26.4749 24.2109 25.4748 24.2109 24.4199C24.2109 23.7761 23.5534 23.2281 22.5259 22.776L24.5534 20.7485C26.0193 21.6116 26.9508 22.7623 26.9508 24.4199ZM7.19625 18.7347C5.8674 17.9675 5.03174 16.9675 5.03174 15.5153C5.03174 13.0494 7.62093 11.9124 9.90873 10.9123C11.3198 10.2821 13.2514 9.43278 13.2514 8.66561C13.2514 8.10394 12.1828 7.29567 10.5115 7.29567C8.78538 7.29567 8.04561 8.13134 8.00451 8.17243C7.52503 8.73411 6.66197 8.80261 6.08659 8.33683C5.52492 7.87105 5.41532 7.03538 5.8811 6.44631C6.0318 6.25451 7.44284 4.55579 10.5115 4.55579C13.5802 4.55579 15.9913 6.36411 15.9913 8.66561C15.9913 11.2274 13.3473 12.3919 11.0047 13.4193C9.71694 13.981 7.77162 14.8304 7.77162 15.5153C7.77162 15.94 8.3607 16.3373 9.23746 16.6935L7.19625 18.7347Z" fill="#787878"/>
<path d="M20.1011 29.2147C23.4712 29.2147 26.9508 27.4201 26.9508 24.4199C26.9508 22.7623 26.0193 21.6116 24.5534 20.7485L22.5259 22.776C23.5534 23.2281 24.2109 23.7761 24.2109 24.4199C24.2109 25.4748 22.2108 26.4749 20.1011 26.4749C19.3476 26.4749 18.7312 27.0913 18.7312 27.8448C18.7312 28.5983 19.3476 29.2147 20.1011 29.2147Z" fill="#787878"/>
</svg>
