<svg width="26" height="26" viewBox="0 0 26 26" fill="none" xmlns="http://www.w3.org/2000/svg">
<path d="M22.1357 9.90045L23.608 8.42822C24.6913 7.34489 24.8936 5.78333 23.8103 4.69999L22.8676 3.75732C21.7843 2.67399 20.2612 2.91476 19.1778 3.9981L17.7056 5.47032L22.1357 9.90045ZM15.7403 7.4356L2.97644 20.2134L2.25949 25.3853L7.40657 24.6296L20.1705 11.8657L15.7403 7.4356ZM23.0928 20.5242C23.0928 23.5659 19.565 25.3853 16.1484 25.3853C15.3845 25.3853 14.7595 24.7603 14.7595 23.9964C14.7595 23.2325 15.3845 22.6075 16.1484 22.6075C18.2873 22.6075 20.315 21.5936 20.315 20.5242C20.315 19.8714 19.6484 19.3159 18.6067 18.8575L20.6623 16.802C22.1484 17.677 23.0928 18.8436 23.0928 20.5242ZM3.06505 14.7603C1.71783 13.9825 0.870605 12.9686 0.870605 11.4964C0.870605 8.99643 3.49561 7.84365 5.81505 6.82976C7.24561 6.19087 9.20394 5.32976 9.20394 4.55198C9.20394 3.98254 8.1206 3.16309 6.42616 3.16309C4.67616 3.16309 3.92616 4.01031 3.88449 4.05198C3.39838 4.62143 2.52338 4.69087 1.94005 4.21865C1.37061 3.74643 1.25949 2.8992 1.73172 2.30198C1.88449 2.10754 3.31505 0.385315 6.42616 0.385315C9.53727 0.385315 11.9817 2.21865 11.9817 4.55198C11.9817 7.1492 9.30116 8.32976 6.92616 9.37143C5.62061 9.94087 3.64838 10.802 3.64838 11.4964C3.64838 11.927 4.24561 12.3298 5.13449 12.6909L3.06505 14.7603Z" fill="#787878"/>
<path d="M16.1484 25.3853C19.565 25.3853 23.0928 23.5659 23.0928 20.5242C23.0928 18.8436 22.1484 17.677 20.6623 16.802L18.6067 18.8575C19.6484 19.3159 20.315 19.8714 20.315 20.5242C20.315 21.5936 18.2873 22.6075 16.1484 22.6075C15.3845 22.6075 14.7595 23.2325 14.7595 23.9964C14.7595 24.7603 15.3845 25.3853 16.1484 25.3853Z" fill="#787878"/>
</svg>
