<svg width="49" height="49" viewBox="0 0 49 49" fill="none" xmlns="http://www.w3.org/2000/svg">
<path d="M14.6445 10.6201H34.7549C35.9257 10.6201 36.9183 11.0287 37.7373 11.8477C38.5563 12.6666 38.9648 13.6592 38.9648 14.8301V34.9404C38.9648 36.1113 38.5563 37.1039 37.7373 37.9229C36.9183 38.7418 35.9257 39.1504 34.7549 39.1504H14.6445C13.4737 39.1504 12.4811 38.7418 11.6621 37.9229C10.8431 37.1039 10.4346 36.1113 10.4346 34.9404V14.8301C10.4346 13.6592 10.8431 12.6666 11.6621 11.8477C12.4811 11.0287 13.4737 10.6201 14.6445 10.6201ZM14.6445 13.293C14.2664 13.293 13.9382 13.4064 13.6641 13.6318L13.5498 13.7354C13.2554 14.0308 13.1074 14.398 13.1074 14.8301V34.9404C13.1074 35.3726 13.2552 35.7396 13.5498 36.0342C13.8452 36.3295 14.2124 36.4766 14.6445 36.4766H34.7549C35.1871 36.4766 35.5541 36.3297 35.8486 36.0342C36.1441 35.7397 36.291 35.3726 36.291 34.9404V14.8301C36.291 14.398 36.1439 14.0308 35.8486 13.7354C35.5541 13.4408 35.187 13.293 34.7549 13.293H14.6445ZM33.1104 33.4043H16.3223L21.8271 27.8984L24.3418 30.3789L24.4219 30.457L24.4912 30.3701L27.5723 26.4824L33.1104 33.4043ZM18.9541 16.3662C19.7173 16.3663 20.3686 16.6372 20.9131 17.1816C21.4566 17.7251 21.7266 18.3763 21.7266 19.1396C21.7265 19.9028 21.4564 20.5533 20.9131 21.0967C20.3686 21.6411 19.7173 21.912 18.9541 21.9121C18.1908 21.9121 17.5396 21.6411 16.9961 21.0967C16.4518 20.5532 16.1807 19.9028 16.1807 19.1396C16.1807 18.3764 16.4516 17.7252 16.9961 17.1816C17.5396 16.6372 18.1908 16.3662 18.9541 16.3662Z" fill="#787878" stroke="white" stroke-width="0.2"/>
</svg>
