<svg width="50" height="50" viewBox="0 0 50 50" fill="none" xmlns="http://www.w3.org/2000/svg">
<g clip-path="url(#clip0_5409_288)">
<path d="M23.2222 17.7913V20.5383H17.6802C15.3848 20.5385 13.5192 22.4041 13.519 24.6995C13.519 26.9949 15.3847 28.8614 17.6802 28.8616H23.2222V31.6077H17.6802C13.8669 31.6075 10.772 28.5128 10.772 24.6995C10.7721 20.8863 13.867 17.7914 17.6802 17.7913H23.2222ZM31.3472 17.7913C35.1604 17.7913 38.2552 20.8862 38.2554 24.6995C38.2554 28.5128 35.1605 31.6076 31.3472 31.6077H25.8052V28.8616H31.3472C33.6427 28.8615 35.5083 26.995 35.5083 24.6995C35.5081 22.4041 33.6426 20.5384 31.3472 20.5383H25.8052V17.7913H31.3472ZM30.0552 23.2581V26.1418H18.9722V23.2581H30.0552Z" fill="#787878" stroke="#787878" stroke-width="0.15"/>
</g>
<defs>
<clipPath id="clip0_5409_288">
<rect width="48.9901" height="48.9901" fill="white" transform="translate(0.20459 0.39032)"/>
</clipPath>
</defs>
</svg>
