<svg width="26" height="26" viewBox="0 0 26 26" fill="none" xmlns="http://www.w3.org/2000/svg">
<g clip-path="url(#clip0_5409_288)">
<path d="M11.5249 6.56006V9.08545H6.44971C4.35363 9.08545 2.6499 10.7892 2.6499 12.8853C2.6499 14.9813 4.35363 16.6851 6.44971 16.6851H11.5249V19.2104H6.44971C2.95829 19.2104 0.124512 16.3767 0.124512 12.8853C0.124512 9.39383 2.95829 6.56006 6.44971 6.56006H11.5249ZM18.9497 6.56006C22.4411 6.56006 25.2749 9.39383 25.2749 12.8853C25.2749 16.3767 22.4411 19.2104 18.9497 19.2104H13.8745V16.6851H18.9497C21.0458 16.6851 22.7495 14.9813 22.7495 12.8853C22.7495 10.7892 21.0458 9.08545 18.9497 9.08545H13.8745V6.56006H18.9497ZM17.7749 11.5601V14.2104H7.62451V11.5601H17.7749Z" fill="#787878" stroke="#787878" stroke-width="0.15"/>
</g>
<defs>
<clipPath id="clip0_5409_288">
<rect width="25" height="25" fill="white" transform="translate(0.199707 0.385315)"/>
</clipPath>
</defs>
</svg>
