<svg width="26" height="26" viewBox="0 0 26 26" fill="none" xmlns="http://www.w3.org/2000/svg">
<g clip-path="url(#clip0_5409_280)">
<path d="M20.2075 3.737C19.6346 3.18407 18.713 3.18409 18.1401 3.737C17.5574 4.29965 17.5575 5.21922 18.1401 5.78192L19.4761 7.07196H8.81689C4.44629 7.07196 0.872751 10.4975 0.872559 14.7595C0.872561 19.0215 4.44617 22.447 8.81689 22.447H17.8794C18.675 22.4468 19.3501 21.8197 19.3501 21.0095C19.3499 20.1994 18.6749 19.5721 17.8794 19.572H8.81689C6.03757 19.572 3.81494 17.4009 3.81494 14.7595C3.81514 12.1181 6.03769 9.94696 8.81689 9.94696H19.4761L18.1401 11.237C17.5574 11.7997 17.5575 12.7192 18.1401 13.2819C18.713 13.8351 19.6346 13.835 20.2075 13.2819L24.0913 9.53192C24.6739 8.96921 24.674 8.04963 24.0913 7.487L20.2075 3.737ZM23.7446 7.84637V7.84735L19.8608 4.09735V4.09637L23.7446 7.84637Z" fill="#787878"/>
</g>
<defs>
<clipPath id="clip0_5409_280">
<rect width="25" height="25" fill="white" transform="matrix(-1 0 0 1 25.1997 0.385315)"/>
</clipPath>
</defs>
</svg>
