<svg width="32" height="31" viewBox="0 0 32 31" fill="none" xmlns="http://www.w3.org/2000/svg">
<path d="M23.0327 5.04254C22.5567 4.58317 21.789 4.58313 21.313 5.04254C20.832 5.50695 20.832 6.26368 21.313 6.72809L23.0933 8.44781H11.8159C7.57492 8.44781 4.12158 11.7695 4.12158 15.8853C4.12158 20.0011 7.57492 23.3228 11.8159 23.3228H20.8784C21.5444 23.3227 22.0991 22.7993 22.0991 22.1353C22.0991 21.4714 21.5444 20.9479 20.8784 20.9478H11.8159C8.90686 20.9478 6.56397 18.673 6.56396 15.8853C6.56396 13.0976 8.90686 10.8228 11.8159 10.8228H23.0933L21.313 12.5425C20.832 13.0069 20.832 13.7637 21.313 14.2281C21.789 14.6875 22.5567 14.6874 23.0327 14.2281L26.9175 10.4781C27.3982 10.0137 27.3982 9.2569 26.9175 8.79254L23.0327 5.04254Z" fill="#787878" stroke="#787878" stroke-width="0.5"/>
</svg>
