<svg width="33" height="33" viewBox="0 0 33 33" fill="none" xmlns="http://www.w3.org/2000/svg">
<path fill-rule="evenodd" clip-rule="evenodd" d="M18.033 26.2187H20.6997C21.4357 26.2187 22.033 26.816 22.033 27.552C22.033 28.288 21.4357 28.8854 20.6997 28.8854H12.6997C11.9637 28.8854 11.3664 28.288 11.3664 27.552C11.3664 26.816 11.9637 26.2187 12.6997 26.2187H15.3664V7.55204H7.36637V10.2187C7.36637 10.9547 6.76904 11.552 6.03304 11.552C5.29704 11.552 4.69971 10.9547 4.69971 10.2187V6.21871C4.69971 5.48271 5.29704 4.88538 6.03304 4.88538H27.3664C28.1024 4.88538 28.6997 5.48271 28.6997 6.21871V10.2187C28.6997 10.9547 28.1024 11.552 27.3664 11.552C26.6304 11.552 26.033 10.9547 26.033 10.2187V7.55204H18.033V26.2187Z" fill="#787878"/>
</svg>
