<svg width="26" height="26" viewBox="0 0 26 26" fill="none" xmlns="http://www.w3.org/2000/svg">
<g clip-path="url(#clip0_5409_300)">
<path fill-rule="evenodd" clip-rule="evenodd" d="M14.0886 22.6075H16.8664C17.633 22.6075 18.2553 23.2297 18.2553 23.9964C18.2553 24.763 17.633 25.3853 16.8664 25.3853H8.53304C7.76637 25.3853 7.14415 24.763 7.14415 23.9964C7.14415 23.2297 7.76637 22.6075 8.53304 22.6075H11.3108V3.16303H2.97748V5.94081C2.97748 6.70748 2.35526 7.3297 1.5886 7.3297C0.821929 7.3297 0.199707 6.70748 0.199707 5.94081V1.77414C0.199707 1.00748 0.821929 0.385254 1.5886 0.385254H23.8108C24.5775 0.385254 25.1997 1.00748 25.1997 1.77414V5.94081C25.1997 6.70748 24.5775 7.3297 23.8108 7.3297C23.0442 7.3297 22.4219 6.70748 22.4219 5.94081V3.16303H14.0886V22.6075Z" fill="#787878"/>
</g>
<defs>
<clipPath id="clip0_5409_300">
<rect width="25" height="25" fill="white" transform="translate(0.199707 0.385254)"/>
</clipPath>
</defs>
</svg>
