<svg width="26" height="26" viewBox="0 0 26 26" fill="none" xmlns="http://www.w3.org/2000/svg">
<path d="M5.19189 3.7381C5.76479 3.18502 6.68635 3.18506 7.25928 3.7381C7.84205 4.30079 7.84205 5.22033 7.25928 5.78302L5.92334 7.07306H16.5825C20.9532 7.07306 24.5268 10.4985 24.5269 14.7606C24.5269 19.0226 20.9532 22.4481 16.5825 22.4481H7.52002C6.72445 22.4479 6.04932 21.8207 6.04932 21.0106C6.04933 20.2004 6.72445 19.5733 7.52002 19.5731H16.5825C19.3618 19.5731 21.5845 17.402 21.5845 14.7606C21.5845 12.1191 19.3618 9.94806 16.5825 9.94806H5.92334L7.25928 11.2381C7.84206 11.8008 7.84205 12.7203 7.25928 13.283C6.68636 13.8361 5.7648 13.8361 5.19189 13.283L1.30811 9.53302C0.725474 8.97035 0.725462 8.05076 1.30811 7.4881L5.19189 3.7381ZM22.0845 14.7606C22.0845 14.9439 22.0749 15.125 22.0562 15.3035C22.0468 15.3928 22.0349 15.4813 22.021 15.5692H22.022C22.0637 15.3055 22.0854 15.0355 22.0854 14.7606C22.0854 14.6688 22.0826 14.5777 22.0776 14.4871L22.0845 14.7606ZM5.53857 12.9236C5.63334 13.0151 5.743 13.084 5.85986 13.1297C5.91816 13.1525 5.9785 13.169 6.03955 13.1805C6.0703 13.1862 6.10125 13.1905 6.13232 13.1932C5.91596 13.1733 5.70532 13.0836 5.53955 12.9236L1.65479 9.17365L5.53857 12.9236ZM5.69092 3.97736C5.63707 4.01171 5.58595 4.05173 5.53857 4.09747H5.53955C5.58676 4.05193 5.63739 4.01169 5.69092 3.97736Z" fill="#787878"/>
</svg>
