<svg width="32" height="31" viewBox="0 0 32 31" fill="none" xmlns="http://www.w3.org/2000/svg">
<path d="M8.3667 5.0426C8.84273 4.58324 9.61043 4.58319 10.0864 5.0426C10.5674 5.50701 10.5674 6.26375 10.0864 6.72815L8.30615 8.44788H19.5835C23.8245 8.44788 27.2778 11.7696 27.2778 15.8854C27.2778 20.0011 23.8245 23.3229 19.5835 23.3229H10.521C9.85506 23.3228 9.3003 22.7993 9.30029 22.1354C9.30029 21.4714 9.85506 20.948 10.521 20.9479H19.5835C22.4926 20.9479 24.8354 18.6731 24.8354 15.8854C24.8354 13.0976 22.4926 10.8229 19.5835 10.8229H8.30615L10.0864 12.5426C10.5674 13.007 10.5674 13.7637 10.0864 14.2281C9.61044 14.6875 8.84272 14.6875 8.3667 14.2281L4.48193 10.4781C4.00121 10.0138 4.00121 9.25696 4.48193 8.7926L8.3667 5.0426Z" fill="#787878" stroke="#787878" stroke-width="0.5"/>
</svg>
